<svg width="14" height="15" viewBox="0 0 14 15" fill="none" xmlns="http://www.w3.org/2000/svg">
<g clip-path="url(#clip0_11_1102)">
<g clip-path="url(#clip1_11_1102)">
<path fill-rule="evenodd" clip-rule="evenodd" d="M0 13.642C0 14.049 0.33 14.379 0.737 14.379H3.684C4.091 14.379 4.421 14.049 4.421 13.642V12.114C4.421 11.707 4.751 11.377 5.158 11.377H5.581C5.988 11.377 6.318 11.047 6.318 10.64V8.79803C6.318 8.70124 6.29894 8.60541 6.2619 8.51599C6.22486 8.42657 6.17057 8.34533 6.10214 8.27689C6.0337 8.20845 5.95245 8.15417 5.86304 8.11713C5.77362 8.08009 5.67778 8.06103 5.581 8.06103H3.739C3.54354 8.06103 3.35608 8.13868 3.21786 8.27689C3.07965 8.4151 3.002 8.60256 3.002 8.79803V9.22103C3.002 9.62803 2.672 9.95803 2.265 9.95803H0.737C0.541535 9.95803 0.354077 10.0357 0.215862 10.1739C0.077648 10.3121 0 10.4996 0 10.695L0 13.642ZM4.421 3.01203C4.421 3.41903 4.751 3.74903 5.158 3.74903H5.581C5.988 3.74903 6.318 4.07903 6.318 4.48603V5.96003C6.318 6.36703 5.988 6.69703 5.581 6.69703H4.107C3.91154 6.69703 3.72408 6.61938 3.58586 6.48117C3.44765 6.34295 3.37 6.15549 3.37 5.96003V5.53703C3.37 5.34174 3.29249 5.15443 3.15449 5.01624C3.01649 4.87806 2.82929 4.80029 2.634 4.80003H0.737C0.541535 4.80003 0.354077 4.72238 0.215862 4.58417C0.077648 4.44595 0 4.25849 0 4.06303L0 1.11603C0 0.709028 0.33 0.379028 0.737 0.379028H3.684C4.091 0.379028 4.421 0.709028 4.421 1.11603V3.01203ZM10.63 5.53703C10.63 5.13003 10.96 4.80003 11.366 4.80003H13.263C13.67 4.80003 14 4.47003 14 4.06303V1.11603C14 0.920564 13.9224 0.733105 13.7841 0.594891C13.6459 0.456676 13.4585 0.379028 13.263 0.379028H10.316C10.2192 0.379028 10.1234 0.398091 10.034 0.435129C9.94455 0.472167 9.8633 0.526454 9.79486 0.594891C9.72643 0.663327 9.67214 0.744574 9.6351 0.833991C9.59806 0.923408 9.579 1.01924 9.579 1.11603V3.01203C9.579 3.41903 9.249 3.74903 8.842 3.74903H8.42C8.22454 3.74903 8.03708 3.82668 7.89886 3.96489C7.76065 4.10311 7.683 4.29056 7.683 4.48603V5.96003C7.683 6.36703 8.013 6.69703 8.42 6.69703H9.894C10.301 6.69703 10.631 6.36703 10.631 5.96003L10.63 5.53703ZM14 13.642C14 14.049 13.67 14.379 13.263 14.379H10.316C10.2192 14.379 10.1234 14.36 10.034 14.3229C9.94455 14.2859 9.8633 14.2316 9.79486 14.1632C9.72643 14.0947 9.67214 14.0135 9.6351 13.9241C9.59806 13.8347 9.579 13.7388 9.579 13.642V11.745C9.57874 11.5497 9.50097 11.3625 9.36278 11.2245C9.2246 11.0865 9.03729 11.009 8.842 11.009H8.419C8.22354 11.009 8.03608 10.9314 7.89786 10.7932C7.75965 10.655 7.682 10.4675 7.682 10.272V8.79803C7.682 8.39103 8.012 8.06103 8.419 8.06103H9.893C10.3 8.06103 10.63 8.39103 10.63 8.79803V9.22103C10.63 9.62803 10.96 9.95803 11.366 9.95803H13.263C13.67 9.95803 14 10.288 14 10.695V13.642Z" fill="white"/>
</g>
</g>
<defs>
<clipPath id="clip0_11_1102">
<rect width="14" height="15" fill="white"/>
</clipPath>
<clipPath id="clip1_11_1102">
<rect width="14" height="15" fill="white"/>
</clipPath>
</defs>
</svg>
