<svg width="131" height="32" viewBox="0 0 131 32" fill="none" xmlns="http://www.w3.org/2000/svg">
<g clip-path="url(#clip0_146_64)">
<path fill-rule="evenodd" clip-rule="evenodd" d="M0 27.632C0 28.387 0.612 29 1.368 29H6.842C7.598 29 8.21 28.387 8.21 27.632V24.793C8.21 24.038 8.823 23.425 9.579 23.425H10.365C11.12 23.425 11.733 22.812 11.733 22.056V18.636C11.733 17.88 11.12 17.267 10.365 17.267H6.944C6.188 17.267 5.575 17.88 5.575 18.635V19.421C5.575 20.177 4.962 20.79 4.207 20.79H1.368C0.613 20.79 0 21.402 0 22.158V27.632ZM8.21 7.89C8.21 8.646 8.823 9.258 9.579 9.258H10.365C11.12 9.258 11.733 9.871 11.733 10.627V13.364C11.733 14.119 11.12 14.732 10.365 14.732H7.628C7.44827 14.7321 7.27027 14.6968 7.10418 14.6282C6.93809 14.5595 6.78717 14.4587 6.66003 14.3317C6.53289 14.2046 6.43204 14.0538 6.36323 13.8877C6.29442 13.7217 6.259 13.5437 6.259 13.364V12.578C6.259 11.822 5.647 11.21 4.891 11.21H1.368C1.00518 11.21 0.657228 11.0659 0.400678 10.8093C0.144128 10.5528 0 10.2048 0 9.842V4.37C0 3.613 0.612 3 1.368 3H6.842C7.598 3 8.21 3.613 8.21 4.369V7.89ZM19.74 12.578C19.74 11.822 20.353 11.21 21.109 11.21H24.632C25.387 11.21 26 10.597 26 9.841V4.37C26 4.007 25.8559 3.65884 25.5994 3.40197C25.343 3.1451 24.995 3.00053 24.632 3H19.158C18.795 3.00026 18.4469 3.14458 18.1903 3.40126C17.9336 3.65794 17.7893 4.006 17.789 4.369V7.89C17.789 8.646 17.177 9.258 16.421 9.258H15.635C14.88 9.258 14.267 9.871 14.267 10.627V13.364C14.267 14.119 14.88 14.732 15.635 14.732H18.372C19.128 14.732 19.741 14.119 19.741 13.364L19.74 12.578ZM26 27.631C26 28.386 25.387 28.999 24.631 28.999H19.158C18.9783 28.9991 18.8003 28.9638 18.6342 28.8952C18.4681 28.8265 18.3172 28.7257 18.19 28.5987C18.0629 28.4716 17.962 28.3208 17.8932 28.1547C17.8244 27.9887 17.789 27.8107 17.789 27.631V24.108C17.789 23.353 17.176 22.74 16.421 22.74H15.635C15.4553 22.74 15.2773 22.7046 15.1113 22.6358C14.9452 22.567 14.7944 22.4661 14.6673 22.339C14.5403 22.2118 14.4395 22.0609 14.3708 21.8948C14.3022 21.7287 14.2669 21.5507 14.267 21.371V18.635C14.267 17.879 14.88 17.266 15.635 17.266H18.372C18.735 17.2663 19.0831 17.4106 19.3397 17.6673C19.5964 17.9239 19.7407 18.272 19.741 18.635V19.42C19.741 20.176 20.353 20.789 21.109 20.789H24.631C25.387 20.789 26 21.401 26 22.157V27.631Z" fill="#3267ED"/>
<path d="M39.7 8.8H41.82L47.34 23H44.98L43.48 19.14H38L36.52 23H34.14L39.7 8.8ZM43.04 17.48L40.76 11.26L38.4 17.48H43.04ZM57.3008 12.14C57.1674 11.9933 56.9741 11.84 56.7208 11.68C56.4674 11.5067 56.1674 11.3467 55.8208 11.2C55.4741 11.0533 55.1008 10.9333 54.7008 10.84C54.3008 10.7467 53.8874 10.7 53.4608 10.7C52.5274 10.7 51.8341 10.8733 51.3808 11.22C50.9274 11.5667 50.7008 12.0467 50.7008 12.66C50.7008 13.1133 50.8274 13.4733 51.0808 13.74C51.3341 13.9933 51.7208 14.2067 52.2408 14.38C52.7608 14.5533 53.4141 14.74 54.2008 14.94C55.1608 15.1667 55.9941 15.44 56.7008 15.76C57.4074 16.0667 57.9474 16.48 58.3208 17C58.6941 17.52 58.8808 18.2067 58.8808 19.06C58.8808 19.78 58.7474 20.4 58.4808 20.92C58.2141 21.44 57.8408 21.8667 57.3608 22.2C56.8808 22.52 56.3274 22.76 55.7008 22.92C55.0741 23.0667 54.4008 23.14 53.6808 23.14C52.9741 23.14 52.2674 23.0667 51.5608 22.92C50.8674 22.7733 50.2008 22.56 49.5608 22.28C48.9341 21.9867 48.3541 21.6333 47.8208 21.22L48.8408 19.3C49.0141 19.4733 49.2608 19.6667 49.5808 19.88C49.9141 20.08 50.2941 20.2733 50.7208 20.46C51.1608 20.6467 51.6341 20.8067 52.1408 20.94C52.6608 21.06 53.1874 21.12 53.7208 21.12C54.6141 21.12 55.2941 20.9667 55.7608 20.66C56.2408 20.34 56.4808 19.8867 56.4808 19.3C56.4808 18.82 56.3274 18.44 56.0208 18.16C55.7141 17.8667 55.2674 17.62 54.6808 17.42C54.0941 17.22 53.3941 17.02 52.5808 16.82C51.6474 16.5667 50.8674 16.2933 50.2408 16C49.6141 15.6933 49.1408 15.3067 48.8208 14.84C48.5141 14.36 48.3608 13.7533 48.3608 13.02C48.3608 12.0867 48.5874 11.3 49.0408 10.66C49.4941 10.0067 50.1074 9.52 50.8808 9.2C51.6674 8.86667 52.5474 8.7 53.5208 8.7C54.1608 8.7 54.7674 8.77333 55.3408 8.92C55.9141 9.05333 56.4474 9.24 56.9408 9.48C57.4474 9.72 57.9074 9.99333 58.3208 10.3L57.3008 12.14ZM64.9344 8.8H67.0544L72.5744 23H70.2144L68.7144 19.14H63.2344L61.7544 23H59.3744L64.9344 8.8ZM68.2744 17.48L65.9944 11.26L63.6344 17.48H68.2744ZM74.3305 23V8.8H80.2905C80.9305 8.8 81.5171 8.93333 82.0505 9.2C82.5838 9.46667 83.0505 9.82 83.4505 10.26C83.8505 10.7 84.1571 11.1933 84.3705 11.74C84.5838 12.2867 84.6905 12.8467 84.6905 13.42C84.6905 14.2067 84.5105 14.96 84.1505 15.68C83.8038 16.3867 83.3038 16.96 82.6505 17.4C82.0105 17.84 81.2638 18.06 80.4105 18.06H76.5705V23H74.3305ZM76.5705 16.08H80.2705C80.6971 16.08 81.0705 15.9667 81.3905 15.74C81.7105 15.5 81.9571 15.18 82.1305 14.78C82.3171 14.38 82.4105 13.9267 82.4105 13.42C82.4105 12.9 82.3038 12.44 82.0905 12.04C81.8771 11.64 81.5971 11.3333 81.2505 11.12C80.9171 10.8933 80.5505 10.78 80.1505 10.78H76.5705V16.08ZM91.2055 23V8.8H96.2455C97.7788 8.8 99.0588 9.12 100.085 9.76C101.112 10.3867 101.879 11.24 102.385 12.32C102.905 13.3867 103.165 14.5733 103.165 15.88C103.165 17.32 102.879 18.5733 102.305 19.64C101.745 20.7067 100.945 21.5333 99.9055 22.12C98.8655 22.7067 97.6455 23 96.2455 23H91.2055ZM100.885 15.88C100.885 14.88 100.699 14 100.325 13.24C99.9655 12.4667 99.4388 11.8667 98.7455 11.44C98.0655 11 97.2321 10.78 96.2455 10.78H93.4455V21.02H96.2455C97.2455 21.02 98.0855 20.7933 98.7655 20.34C99.4588 19.8867 99.9855 19.2733 100.345 18.5C100.705 17.7267 100.885 16.8533 100.885 15.88ZM116.682 19.34C116.682 20.1 116.482 20.7533 116.082 21.3C115.695 21.8467 115.169 22.2667 114.502 22.56C113.835 22.8533 113.102 23 112.302 23H105.522V8.8H112.842C113.509 8.8 114.082 8.98 114.562 9.34C115.055 9.68667 115.429 10.14 115.682 10.7C115.949 11.2467 116.082 11.82 116.082 12.42C116.082 13.1133 115.902 13.7667 115.542 14.38C115.195 14.98 114.695 15.4267 114.042 15.72C114.855 15.96 115.495 16.4 115.962 17.04C116.442 17.6667 116.682 18.4333 116.682 19.34ZM114.382 18.92C114.382 18.52 114.295 18.16 114.122 17.84C113.962 17.5067 113.735 17.24 113.442 17.04C113.162 16.8267 112.829 16.72 112.442 16.72H107.762V21.06H112.302C112.702 21.06 113.055 20.9667 113.362 20.78C113.682 20.58 113.929 20.32 114.102 20C114.289 19.6667 114.382 19.3067 114.382 18.92ZM107.762 10.74V14.92H111.882C112.255 14.92 112.589 14.8333 112.882 14.66C113.175 14.4733 113.409 14.2267 113.582 13.92C113.755 13.6 113.842 13.24 113.842 12.84C113.842 12.4267 113.762 12.0667 113.602 11.76C113.442 11.44 113.222 11.1933 112.942 11.02C112.675 10.8333 112.362 10.74 112.002 10.74H107.762ZM122.825 8.8H124.945L130.465 23H128.105L126.605 19.14H121.125L119.645 23H117.265L122.825 8.8ZM126.165 17.48L123.885 11.26L121.525 17.48H126.165Z" fill="#3267ED"/>
</g>
<defs>
<clipPath id="clip0_146_64">
<rect width="131" height="32" fill="white"/>
</clipPath>
</defs>
</svg>
