<svg width="66" height="36" viewBox="0 0 66 36" fill="none" xmlns="http://www.w3.org/2000/svg">
<path d="M47.4066 0.5H18C8.33502 0.5 0.5 8.33502 0.5 18C0.5 27.665 8.33502 35.5 18 35.5H47.4066C57.0716 35.5 64.9066 27.665 64.9066 18C64.9066 8.33502 57.0716 0.5 47.4066 0.5Z" fill="white"/>
<mask id="mask0_8_216" style="mask-type:luminance" maskUnits="userSpaceOnUse" x="16" y="8" width="34" height="20">
<path d="M49.4066 8H16V28H49.4066V8Z" fill="white"/>
</mask>
<g mask="url(#mask0_8_216)">
<path d="M25.494 15.2969C25.494 15.7035 25.538 16.0332 25.615 16.2749C25.703 16.5167 25.813 16.7804 25.967 17.0661C26.022 17.1541 26.043 17.242 26.043 17.3189C26.043 17.4288 25.978 17.5387 25.835 17.6486L25.142 18.1101C25.043 18.176 24.945 18.209 24.857 18.209C24.747 18.209 24.637 18.1541 24.527 18.0552C24.373 17.8903 24.241 17.7145 24.131 17.5387C24.022 17.3519 23.912 17.1431 23.791 16.8903C22.934 17.9013 21.857 18.4068 20.56 18.4068C19.637 18.4068 18.901 18.1431 18.362 17.6156C17.824 17.0881 17.549 16.3848 17.549 15.5057C17.549 14.5716 17.879 13.8134 18.549 13.242C19.219 12.6705 20.109 12.3848 21.241 12.3848C21.615 12.3848 22 12.4178 22.406 12.4727C22.813 12.5277 23.23 12.6156 23.67 12.7145V11.9123C23.67 11.0771 23.494 10.4947 23.153 10.1541C22.802 9.8134 22.208 9.64857 21.362 9.64857C20.978 9.64857 20.582 9.69252 20.175 9.79142C19.769 9.89032 19.373 10.0112 18.989 10.165C18.813 10.242 18.681 10.2859 18.604 10.3079C18.527 10.3299 18.472 10.3409 18.428 10.3409C18.274 10.3409 18.197 10.231 18.197 10.0002V9.46175C18.197 9.28593 18.219 9.15406 18.274 9.07714C18.329 9.00021 18.428 8.92329 18.582 8.84637C18.967 8.64857 19.428 8.48373 19.967 8.35186C20.505 8.20901 21.076 8.14307 21.681 8.14307C22.989 8.14307 23.945 8.43977 24.56 9.03318C25.164 9.62659 25.472 10.5277 25.472 11.7365V15.2969H25.494ZM21.033 16.9672C21.395 16.9672 21.769 16.9013 22.164 16.7694C22.56 16.6376 22.912 16.3958 23.208 16.0661C23.384 15.8574 23.516 15.6266 23.582 15.3629C23.648 15.0991 23.692 14.7804 23.692 14.4068V13.9453C23.373 13.8683 23.033 13.8024 22.681 13.7585C22.329 13.7145 21.989 13.6925 21.648 13.6925C20.912 13.6925 20.373 13.8354 20.011 14.1321C19.648 14.4288 19.472 14.8464 19.472 15.3958C19.472 15.9123 19.604 16.2969 19.879 16.5607C20.142 16.8354 20.527 16.9672 21.033 16.9672ZM29.857 18.1541C29.659 18.1541 29.527 18.1211 29.439 18.0442C29.351 17.9782 29.274 17.8244 29.208 17.6156L26.626 9.12109C26.56 8.90131 26.527 8.75846 26.527 8.68153C26.527 8.50571 26.615 8.40681 26.791 8.40681H27.868C28.076 8.40681 28.219 8.43978 28.296 8.5167C28.384 8.58263 28.45 8.73648 28.516 8.94527L30.362 16.22L32.076 8.94527C32.131 8.72549 32.197 8.58263 32.285 8.5167C32.373 8.45076 32.527 8.40681 32.725 8.40681H33.604C33.813 8.40681 33.956 8.43978 34.043 8.5167C34.131 8.58263 34.208 8.73648 34.252 8.94527L35.989 16.3079L37.89 8.94527C37.956 8.72549 38.033 8.58263 38.109 8.5167C38.197 8.45076 38.34 8.40681 38.538 8.40681H39.56C39.736 8.40681 39.835 8.49472 39.835 8.68153C39.835 8.73648 39.824 8.79142 39.813 8.85736C39.802 8.92329 39.78 9.0112 39.736 9.13208L37.087 17.6266C37.022 17.8464 36.945 17.9892 36.857 18.0552C36.769 18.1211 36.626 18.165 36.439 18.165H35.494C35.285 18.165 35.142 18.1321 35.054 18.0552C34.967 17.9782 34.89 17.8354 34.846 17.6156L33.142 10.5277L31.45 17.6046C31.395 17.8244 31.329 17.9672 31.241 18.0442C31.153 18.1211 31 18.1541 30.802 18.1541H29.857ZM43.978 18.4508C43.406 18.4508 42.835 18.3848 42.285 18.253C41.736 18.1211 41.307 17.9782 41.022 17.8134C40.846 17.7145 40.725 17.6046 40.681 17.5057C40.637 17.4068 40.615 17.2969 40.615 17.198V16.6376C40.615 16.4068 40.703 16.2969 40.868 16.2969C40.934 16.2969 41 16.3079 41.065 16.3299C41.131 16.3519 41.23 16.3958 41.34 16.4398C41.714 16.6046 42.12 16.7365 42.549 16.8244C42.989 16.9123 43.417 16.9563 43.857 16.9563C44.549 16.9563 45.087 16.8354 45.461 16.5936C45.835 16.3519 46.032 16.0002 46.032 15.5497C46.032 15.242 45.934 14.9892 45.736 14.7804C45.538 14.5716 45.164 14.3848 44.626 14.209L43.033 13.7145C42.23 13.4618 41.637 13.0881 41.274 12.5936C40.912 12.1101 40.725 11.5716 40.725 11.0002C40.725 10.5387 40.824 10.1321 41.022 9.78043C41.219 9.42879 41.483 9.12109 41.813 8.87934C42.142 8.62659 42.516 8.43978 42.956 8.30791C43.395 8.17604 43.857 8.12109 44.34 8.12109C44.582 8.12109 44.835 8.13208 45.076 8.16505C45.329 8.19802 45.56 8.24197 45.791 8.28593C46.011 8.34087 46.219 8.39582 46.417 8.46175C46.615 8.52769 46.769 8.59362 46.879 8.65956C47.033 8.74747 47.142 8.83538 47.208 8.93428C47.274 9.02219 47.307 9.14307 47.307 9.29692V9.8134C47.307 10.0442 47.219 10.165 47.054 10.165C46.967 10.165 46.824 10.1211 46.637 10.0332C46.011 9.74747 45.307 9.60461 44.527 9.60461C43.901 9.60461 43.406 9.70351 43.065 9.9123C42.725 10.1211 42.549 10.4398 42.549 10.8903C42.549 11.198 42.659 11.4618 42.879 11.6705C43.098 11.8793 43.505 12.0881 44.087 12.2749L45.648 12.7694C46.439 13.0222 47.011 13.3738 47.351 13.8244C47.692 14.2749 47.857 14.7914 47.857 15.3629C47.857 15.8354 47.758 16.264 47.571 16.6376C47.373 17.0112 47.109 17.3409 46.769 17.6046C46.428 17.8793 46.022 18.0771 45.549 18.22C45.054 18.3738 44.538 18.4508 43.978 18.4508Z" fill="#252F3E"/>
<path fill-rule="evenodd" clip-rule="evenodd" d="M46.053 23.7913C42.438 26.4617 37.185 27.8793 32.669 27.8793C26.339 27.8793 20.636 25.5386 16.328 21.6485C15.988 21.3408 16.295 20.9232 16.702 21.165C21.361 23.8683 27.108 25.5056 33.053 25.5056C37.064 25.5056 41.471 24.6705 45.526 22.9562C46.13 22.6815 46.647 23.3518 46.053 23.7913Z" fill="#FF9900"/>
<path fill-rule="evenodd" clip-rule="evenodd" d="M47.56 22.0772C47.099 21.4838 44.505 21.7915 43.33 21.9343C42.978 21.9783 42.923 21.6706 43.242 21.4398C45.308 19.9893 48.703 20.4068 49.099 20.8904C49.494 21.3849 48.989 24.7805 47.055 26.4068C46.758 26.6596 46.472 26.5277 46.604 26.1981C47.044 25.1101 48.022 22.6596 47.56 22.0772Z" fill="#FF9900"/>
</g>
<path d="M47.4066 0.5H18C8.33502 0.5 0.5 8.33502 0.5 18C0.5 27.665 8.33502 35.5 18 35.5H47.4066C57.0716 35.5 64.9066 27.665 64.9066 18C64.9066 8.33502 57.0716 0.5 47.4066 0.5Z" stroke="#E8E8E8"/>
</svg>
