<svg width="54" height="36" viewBox="0 0 54 36" fill="none" xmlns="http://www.w3.org/2000/svg">
<path d="M36 0.5H18C8.33503 0.5 0.5 8.33502 0.5 18C0.5 27.665 8.33503 35.5 18 35.5H36C45.665 35.5 53.5 27.665 53.5 18C53.5 8.33502 45.665 0.5 36 0.5Z" fill="white"/>
<path d="M32.3145 20.8096H22.8525C22.7645 20.8095 22.6785 20.8359 22.6055 20.8853C22.5335 20.9348 22.4765 21.005 22.4445 21.0868C22.4125 21.1687 22.4055 21.2583 22.4245 21.3441C22.4445 21.4299 22.4895 21.5079 22.5535 21.5679L28.6335 27.243C28.8105 27.4081 29.0435 27.4999 29.2855 27.4999H34.6435L32.3145 20.8096Z" fill="#0078D4"/>
<path d="M36 0.5H18C8.33503 0.5 0.5 8.33502 0.5 18C0.5 27.665 8.33503 35.5 18 35.5H36C45.665 35.5 53.5 27.665 53.5 18C53.5 8.33502 45.665 0.5 36 0.5Z" stroke="#E8E8E8"/>
</svg>
