<svg width="32" height="32" viewBox="0 0 32 32" fill="none" xmlns="http://www.w3.org/2000/svg">
<g clip-path="url(#clip0_44_336)">
<rect width="32" height="32" rx="8" fill="#303030"/>
<path d="M6.5 16C6.5 11.5217 6.5 9.28249 7.89124 7.89124C9.28249 6.5 11.5217 6.5 16 6.5C20.4783 6.5 22.7175 6.5 24.1088 7.89124C25.5 9.28249 25.5 11.5217 25.5 16C25.5 20.4783 25.5 22.7175 24.1088 24.1088C22.7175 25.5 20.4783 25.5 16 25.5C11.5217 25.5 9.28249 25.5 7.89124 24.1088C6.5 22.7175 6.5 20.4783 6.5 16Z" stroke="white" stroke-width="1.5" stroke-linejoin="round"/>
<path d="M21 12.75C21.4142 12.75 21.75 12.4142 21.75 12C21.75 11.5858 21.4142 11.25 21 11.25V12V12.75ZM20 12V12.75V12ZM15.25 25.5C15.25 25.9142 15.5858 26.25 16 26.25C16.4142 26.25 16.75 25.9142 16.75 25.5H16H15.25ZM14 17.25C13.5858 17.25 13.25 17.5858 13.25 18C13.25 18.4142 13.5858 18.75 14 18.75V18V17.25ZM19 18.75C19.4142 18.75 19.75 18.4142 19.75 18C19.75 17.5858 19.4142 17.25 19 17.25V18V18.75ZM21 12V11.25H20V12V12.75H21V12ZM16 16H15.25V25.5H16H16.75V16H16ZM20 12V11.25C19.0784 11.25 18.3117 11.2484 17.7055 11.3299C17.0777 11.4143 16.5109 11.6 16.0555 12.0555L16.5858 12.5858L17.1161 13.1161C17.2464 12.9858 17.4439 12.8786 17.9054 12.8165C18.3884 12.7516 19.036 12.75 20 12.75V12ZM16 16H16.75C16.75 15.036 16.7516 14.3884 16.8165 13.9054C16.8786 13.4439 16.9858 13.2464 17.1161 13.1161L16.5858 12.5858L16.0555 12.0555C15.6 12.5109 15.4143 13.0777 15.3299 13.7055C15.2484 14.3117 15.25 15.0784 15.25 16H16ZM14 18V18.75H19V18V17.25H14V18Z" fill="white"/>
<rect x="0.5" y="0.5" width="31" height="31" rx="7.5" stroke="#606060"/>
</g>
<defs>
<clipPath id="clip0_44_336">
<rect width="32" height="32" rx="8" fill="white"/>
</clipPath>
</defs>
</svg>
