<svg width="162" height="36" viewBox="0 0 162 36" fill="none" xmlns="http://www.w3.org/2000/svg">
<path d="M143.286 0.5H18C8.33502 0.5 0.5 8.33502 0.5 18C0.5 27.665 8.33502 35.5 18 35.5H143.286C152.951 35.5 160.786 27.665 160.786 18C160.786 8.33502 152.951 0.5 143.286 0.5Z" fill="white"/>
<path d="M31.606 13.2935H32.3203L34.356 11.2578L34.456 10.3935C33.2898 9.36415 31.8805 8.64911 30.3611 8.31591C28.8418 7.98271 27.2625 8.04235 25.7726 8.48918C24.2827 8.93601 22.9313 9.75528 21.8461 10.8696C20.7608 11.984 19.9776 13.3566 19.5703 14.8578C19.7971 14.7648 20.0483 14.7497 20.2846 14.8149L24.356 14.1435C24.356 14.1435 24.5632 13.8006 24.6703 13.822C25.5427 12.8639 26.7483 12.2755 28.0403 12.1773C29.3323 12.079 30.6131 12.4783 31.6203 13.2935H31.606Z" fill="#EA4335"/>
<path d="M37.2563 14.8575C36.7884 13.1344 35.8277 11.5854 34.492 10.4004L31.6349 13.2575C32.2303 13.7441 32.7074 14.3595 33.0304 15.0574C33.3533 15.7552 33.5136 16.5173 33.4991 17.2861V17.7933C33.833 17.7933 34.1638 17.859 34.4723 17.9868C34.7808 18.1146 35.061 18.3019 35.2971 18.538C35.5333 18.7742 35.7206 19.0545 35.8484 19.363C35.9761 19.6715 36.042 20.0022 36.042 20.3361C36.042 20.6701 35.9761 21.0007 35.8484 21.3092C35.7206 21.6177 35.5333 21.8981 35.2971 22.1342C35.061 22.3703 34.7808 22.5576 34.4723 22.6854C34.1638 22.8132 33.833 22.879 33.4991 22.879H28.4134L27.9062 23.3933V26.4433L28.4134 26.9504H33.4991C34.9192 26.9615 36.3053 26.5151 37.4522 25.6774C38.599 24.8397 39.4457 23.655 39.8671 22.2988C40.2885 20.9425 40.2621 19.4866 39.7919 18.1465C39.3217 16.8064 38.4327 15.6532 37.2563 14.8575Z" fill="#4285F4"/>
<path d="M23.3209 26.9211H28.4066V22.8497H23.3209C22.9586 22.8496 22.6005 22.7716 22.2709 22.6211L21.5566 22.8425L19.5066 24.8782L19.3281 25.5925C20.4777 26.4606 21.8804 26.9273 23.3209 26.9211Z" fill="#34A853"/>
<path d="M23.3248 13.7139C21.9468 13.7221 20.6058 14.1606 19.4891 14.9679C18.3723 15.7753 17.5356 16.9113 17.0959 18.2172C16.6561 19.5232 16.6352 20.9339 17.0361 22.2523C17.4369 23.5707 18.2396 24.731 19.3319 25.5711L22.2819 22.6211C21.907 22.4517 21.5788 22.1939 21.3255 21.8698C21.0721 21.5457 20.9012 21.165 20.8273 20.7603C20.7535 20.3556 20.7789 19.939 20.9014 19.5463C21.024 19.1536 21.2399 18.7965 21.5308 18.5057C21.8217 18.2148 22.1788 17.9988 22.5715 17.8763C22.9642 17.7538 23.3807 17.7283 23.7854 17.8022C24.1901 17.8761 24.5708 18.047 24.8949 18.3003C25.219 18.5537 25.4768 18.8819 25.6462 19.2568L28.5962 16.3068C27.977 15.4973 27.179 14.8421 26.2645 14.3922C25.35 13.9424 24.3439 13.7103 23.3248 13.7139Z" fill="#FBBC05"/>
<path d="M53.7012 24.0784C52.8256 24.0896 51.9567 23.9239 51.1466 23.5913C50.3366 23.2587 49.602 22.766 48.9869 22.1427C48.3524 21.5459 47.8489 20.8237 47.5083 20.022C47.1677 19.2203 46.9974 18.3566 47.0083 17.4856C46.9979 16.6146 47.1683 15.751 47.5089 14.9494C47.8495 14.1477 48.3527 13.4255 48.9869 12.8284C49.599 12.1987 50.3322 11.6994 51.1424 11.3606C51.9526 11.0218 52.823 10.8505 53.7012 10.857C54.5379 10.8459 55.3685 11.0011 56.1447 11.3138C56.9209 11.6265 57.6272 12.0904 58.2226 12.6784L56.9512 13.9713C56.0805 13.1298 54.9119 12.6675 53.7012 12.6856C53.0731 12.6779 52.4503 12.8009 51.8724 13.0468C51.2944 13.2928 50.7739 13.6562 50.344 14.1141C49.8972 14.5574 49.5447 15.0865 49.3078 15.6696C49.0709 16.2527 48.9544 16.8777 48.9655 17.507C48.9602 18.1291 49.0795 18.746 49.3162 19.3213C49.553 19.8966 49.9024 20.4188 50.344 20.857C51.2286 21.7385 52.4222 22.24 53.6709 22.2546C54.9196 22.2693 56.1247 21.796 57.0297 20.9356C57.59 20.322 57.9338 19.5417 58.0083 18.7141H53.7226V16.8856H59.7869C59.8465 17.2538 59.8704 17.627 59.8583 17.9999C59.896 18.7716 59.7768 19.5429 59.508 20.2673C59.2391 20.9916 58.8261 21.6539 58.294 22.2141C57.7024 22.8301 56.9876 23.3145 56.1963 23.6357C55.4049 23.9569 54.5547 24.1078 53.7012 24.0784ZM67.8012 22.8642C66.9873 23.6443 65.9035 24.0798 64.7762 24.0798C63.6488 24.0798 62.565 23.6443 61.7512 22.8642C61.3461 22.4714 61.0271 21.9987 60.8143 21.4761C60.6016 20.9535 60.4998 20.3924 60.5155 19.8284C60.5003 19.2645 60.6023 18.7035 60.815 18.181C61.0277 17.6585 61.3464 17.1857 61.7512 16.7927C62.5659 16.0142 63.6493 15.5798 64.7762 15.5798C65.903 15.5798 66.9865 16.0142 67.8012 16.7927C68.2059 17.1857 68.5247 17.6585 68.7374 18.181C68.9501 18.7035 69.0521 19.2645 69.0369 19.8284C69.0516 20.393 68.9487 20.9544 68.7347 21.477C68.5207 21.9996 68.2004 22.472 67.794 22.8642H67.8012ZM63.0869 21.6713C63.3034 21.9025 63.565 22.0868 63.8555 22.2127C64.1461 22.3387 64.4595 22.4037 64.7762 22.4037C65.0929 22.4037 65.4062 22.3387 65.6968 22.2127C65.9874 22.0868 66.249 21.9025 66.4655 21.6713C66.7015 21.4273 66.8863 21.1386 67.009 20.8221C67.1316 20.5056 67.1897 20.1677 67.1797 19.8284C67.1903 19.488 67.1325 19.1489 67.0098 18.8312C66.8871 18.5134 66.702 18.2235 66.4655 17.9784C66.2461 17.7496 65.9827 17.5676 65.6912 17.4432C65.3997 17.3188 65.086 17.2547 64.769 17.2547C64.4521 17.2547 64.1384 17.3188 63.8468 17.4432C63.5553 17.5676 63.2919 17.7496 63.0726 17.9784C62.836 18.2235 62.6509 18.5134 62.5282 18.8312C62.4056 19.1489 62.3478 19.488 62.3583 19.8284C62.3493 20.1682 62.4085 20.5064 62.5324 20.8229C62.6563 21.1395 62.8424 21.4279 63.0797 21.6713H63.0869ZM77.1012 22.8642C76.2873 23.6443 75.2035 24.0798 74.0762 24.0798C72.9488 24.0798 71.865 23.6443 71.0512 22.8642C70.6461 22.4714 70.3271 21.9987 70.1143 21.4761C69.9016 20.9535 69.7998 20.3924 69.8155 19.8284C69.8003 19.2645 69.9023 18.7035 70.115 18.181C70.3277 17.6585 70.6464 17.1857 71.0512 16.7927C71.865 16.0126 72.9488 15.577 74.0762 15.577C75.2035 15.577 76.2873 16.0126 77.1012 16.7927C77.5059 17.1857 77.8247 17.6585 78.0374 18.181C78.2501 18.7035 78.3521 19.2645 78.3369 19.8284C78.3525 20.3924 78.2507 20.9535 78.038 21.4761C77.8253 21.9987 77.5062 22.4714 77.1012 22.8642ZM72.3869 21.6713C72.6034 21.9025 72.865 22.0868 73.1555 22.2127C73.4461 22.3387 73.7595 22.4037 74.0762 22.4037C74.3929 22.4037 74.7062 22.3387 74.9968 22.2127C75.2874 22.0868 75.549 21.9025 75.7654 21.6713C76.0015 21.4273 76.1863 21.1386 76.309 20.8221C76.4316 20.5056 76.4897 20.1677 76.4797 19.8284C76.4903 19.488 76.4325 19.1489 76.3098 18.8312C76.1871 18.5134 76.002 18.2235 75.7654 17.9784C75.5461 17.7496 75.2827 17.5676 74.9912 17.4432C74.6997 17.3188 74.386 17.2547 74.069 17.2547C73.7521 17.2547 73.4384 17.3188 73.1468 17.4432C72.8553 17.5676 72.5919 17.7496 72.3726 17.9784C72.136 18.2235 71.9509 18.5134 71.8282 18.8312C71.7056 19.1489 71.6478 19.488 71.6583 19.8284C71.6493 20.1682 71.7085 20.5064 71.8324 20.8229C71.9563 21.1395 72.1424 21.4279 72.3797 21.6713H72.3869ZM83.2154 27.8927C82.3593 27.92 81.5197 27.6527 80.8369 27.1356C80.2306 26.6798 79.7531 26.0743 79.4512 25.3784L81.0797 24.6999C81.257 25.1157 81.5342 25.4813 81.8869 25.7642C82.2643 26.0684 82.738 26.228 83.2226 26.2142C83.5299 26.2328 83.8376 26.1851 84.1248 26.0742C84.412 25.9632 84.6719 25.7917 84.8869 25.5713C85.3172 25.0522 85.5297 24.3866 85.4797 23.7142V23.0999H85.4154C85.1433 23.4232 84.7995 23.6786 84.4114 23.846C84.0234 24.0134 83.6017 24.0881 83.1797 24.0642C82.6434 24.0658 82.1126 23.9562 81.6209 23.7422C81.1291 23.5283 80.687 23.2147 80.3226 22.8213C79.9271 22.431 79.615 21.9645 79.4051 21.4501C79.1951 20.9357 79.0917 20.384 79.1012 19.8284C79.0913 19.2696 79.1944 18.7146 79.4043 18.1967C79.6142 17.6787 79.9265 17.2085 80.3226 16.8141C80.6861 16.4191 81.1279 16.1039 81.6197 15.8887C82.1116 15.6735 82.6428 15.563 83.1797 15.5641C83.6341 15.5634 84.083 15.6634 84.494 15.857C84.8496 16.0123 85.1666 16.244 85.4226 16.5356H85.4869V15.857H87.2583V23.4642C87.3049 24.0659 87.2283 24.6709 87.033 25.242C86.8377 25.8131 86.5279 26.3383 86.1226 26.7856C85.7365 27.1549 85.2804 27.4432 84.7811 27.6333C84.2817 27.8235 83.7494 27.9117 83.2154 27.8927ZM83.344 22.407C83.649 22.4137 83.9518 22.3532 84.2308 22.2297C84.5097 22.1063 84.7581 21.923 84.9583 21.6927C85.399 21.1877 85.6314 20.534 85.6083 19.8642C85.6348 19.1829 85.4026 18.5169 84.9583 17.9999C84.7585 17.7692 84.5101 17.5856 84.2311 17.4622C83.952 17.3387 83.6491 17.2784 83.344 17.2856C83.0307 17.2791 82.7196 17.3395 82.4314 17.4627C82.1432 17.5858 81.8845 17.769 81.6726 17.9999C81.2001 18.4984 80.9434 19.1632 80.9583 19.8499C80.951 20.1867 81.0104 20.5216 81.133 20.8354C81.2556 21.1492 81.4389 21.4357 81.6726 21.6784C81.8835 21.9116 82.1416 22.0971 82.4298 22.2227C82.718 22.3484 83.0297 22.4112 83.344 22.407ZM90.4083 11.3356V23.8213H88.544V11.3356H90.4083ZM95.5226 24.0784C94.9643 24.0928 94.409 23.9917 93.8916 23.7815C93.3741 23.5714 92.9056 23.2566 92.5154 22.857C92.1195 22.4603 91.8084 21.9873 91.6008 21.4667C91.3933 20.9461 91.2938 20.3887 91.3083 19.8284C91.2872 19.2668 91.3794 18.7066 91.5794 18.1814C91.7794 17.6562 92.0832 17.1766 92.4726 16.7713C92.8395 16.3845 93.2832 16.0786 93.7752 15.8732C94.2672 15.6677 94.7967 15.5674 95.3297 15.5784C95.8199 15.5733 96.306 15.668 96.7583 15.857C97.1657 16.0215 97.537 16.2641 97.8512 16.5713C98.1209 16.8317 98.3605 17.1216 98.5654 17.4356C98.7312 17.7007 98.8723 17.9804 98.9869 18.2713L99.1797 18.757L93.4654 21.107C93.6383 21.5041 93.9273 21.8395 94.2946 22.069C94.6618 22.2985 95.0899 22.4114 95.5226 22.3927C95.9435 22.3939 96.3576 22.2859 96.7244 22.0793C97.0912 21.8728 97.3982 21.5747 97.6154 21.2141L99.044 22.1784C98.6794 22.7 98.2129 23.1423 97.6726 23.4784C97.03 23.8844 96.2825 24.093 95.5226 24.0784ZM93.1369 19.6999L96.9369 18.1213C96.8198 17.843 96.6104 17.6134 96.344 17.4713C96.0457 17.3028 95.708 17.2166 95.3654 17.2213C94.7841 17.2363 94.2323 17.4802 93.8297 17.8999C93.5888 18.1304 93.4018 18.4112 93.2821 18.7224C93.1623 19.0336 93.1127 19.3673 93.1369 19.6999Z" fill="#5F6368"/>
<path d="M108.948 24.0787C108.155 24.0923 107.368 23.9457 106.633 23.6475C105.898 23.3493 105.231 22.9056 104.672 22.3433C104.113 21.7809 103.674 21.1113 103.38 20.3748C103.086 19.6383 102.944 18.85 102.962 18.0572C102.944 17.2645 103.086 16.4762 103.38 15.7397C103.674 15.0031 104.113 14.3336 104.672 13.7712C105.231 13.2088 105.898 12.7652 106.633 12.467C107.368 12.1688 108.155 12.0221 108.948 12.0358C109.751 12.0107 110.548 12.1673 111.282 12.4938C112.015 12.8204 112.666 13.3084 113.184 13.9215L112.155 14.9215C111.775 14.4429 111.287 14.0608 110.731 13.8064C110.175 13.5519 109.566 13.4323 108.955 13.4572C108.367 13.444 107.782 13.5498 107.236 13.7683C106.69 13.9868 106.194 14.3134 105.777 14.7287C105.343 15.1644 105.005 15.685 104.782 16.2578C104.56 16.8306 104.458 17.4433 104.484 18.0572C104.458 18.6712 104.56 19.2838 104.782 19.8566C105.005 20.4295 105.343 20.9501 105.777 21.3858C106.194 21.801 106.69 22.1277 107.236 22.3462C107.782 22.5647 108.367 22.6705 108.955 22.6572C109.638 22.6649 110.314 22.5186 110.932 22.2292C111.55 21.9399 112.095 21.5148 112.527 20.9858L113.555 22.0144C113.017 22.6584 112.341 23.1734 111.577 23.5215C110.753 23.9017 109.855 24.0921 108.948 24.0787Z" fill="#5F6368"/>
<path d="M116.322 23.8218H114.844V12.2861H116.322V23.8218Z" fill="#5F6368"/>
<path d="M118.739 16.8781C119.513 16.1087 120.561 15.6768 121.653 15.6768C122.745 15.6768 123.792 16.1087 124.567 16.8781C124.946 17.2781 125.242 17.7491 125.438 18.264C125.634 18.7788 125.727 19.3274 125.71 19.8781C125.727 20.4288 125.634 20.9774 125.438 21.4922C125.242 22.0071 124.946 22.4781 124.567 22.8781C123.792 23.6475 122.745 24.0793 121.653 24.0793C120.561 24.0793 119.513 23.6475 118.739 22.8781C118.36 22.4781 118.064 22.0071 117.868 21.4922C117.671 20.9774 117.579 20.4288 117.596 19.8781C117.579 19.3274 117.671 18.7788 117.868 18.264C118.064 17.7491 118.36 17.2781 118.739 16.8781ZM119.839 21.9495C120.072 22.1957 120.352 22.3918 120.664 22.5259C120.975 22.6599 121.31 22.729 121.649 22.729C121.988 22.729 122.324 22.6599 122.635 22.5259C122.946 22.3918 123.227 22.1957 123.46 21.9495C123.718 21.6722 123.919 21.3463 124.05 20.9906C124.182 20.635 124.241 20.2568 124.224 19.8781C124.241 19.4994 124.182 19.1212 124.05 18.7656C123.919 18.4099 123.718 18.084 123.46 17.8067C123.227 17.5605 122.946 17.3644 122.635 17.2303C122.324 17.0963 121.988 17.0272 121.649 17.0272C121.31 17.0272 120.975 17.0963 120.664 17.2303C120.352 17.3644 120.072 17.5605 119.839 17.8067C119.58 18.084 119.379 18.4099 119.248 18.7656C119.117 19.1212 119.058 19.4994 119.074 19.8781C119.06 20.2561 119.121 20.6332 119.253 20.9876C119.385 21.342 119.587 21.6665 119.846 21.9424L119.839 21.9495Z" fill="#5F6368"/>
<path d="M133.897 23.8213H132.469V22.7284H132.426C132.172 23.1435 131.812 23.4836 131.383 23.7141C130.938 23.972 130.433 24.1075 129.919 24.107C129.501 24.1355 129.083 24.0694 128.695 23.9136C128.306 23.7577 127.958 23.5162 127.676 23.207C127.135 22.5226 126.863 21.6638 126.912 20.7927V15.9355H128.39V20.5213C128.39 21.9927 129.04 22.7284 130.34 22.7284C130.629 22.7374 130.916 22.6773 131.177 22.553C131.438 22.4288 131.665 22.244 131.84 22.0141C132.224 21.5284 132.428 20.9256 132.419 20.307V15.9355H133.897V23.8213Z" fill="#5F6368"/>
<path d="M138.923 24.0781C138.421 24.0798 137.925 23.9727 137.469 23.7643C137.012 23.5559 136.607 23.2512 136.28 22.871C135.539 22.053 135.143 20.981 135.173 19.8781C135.143 18.7752 135.539 17.7032 136.28 16.8852C136.607 16.505 137.012 16.2003 137.469 15.9919C137.925 15.7835 138.421 15.6764 138.923 15.6781C139.484 15.6692 140.04 15.8019 140.537 16.0638C140.974 16.2837 141.344 16.6167 141.608 17.0281H141.673L141.608 15.9352V12.2852H143.087V23.821H141.658V22.7281H141.594C141.329 23.1395 140.959 23.4725 140.523 23.6924C140.03 23.952 139.48 24.0846 138.923 24.0781ZM139.165 22.7281C139.5 22.733 139.831 22.6667 140.138 22.5337C140.444 22.4007 140.719 22.204 140.944 21.9567C141.446 21.3848 141.703 20.6379 141.658 19.8781C141.703 19.1183 141.446 18.3714 140.944 17.7995C140.718 17.5509 140.442 17.3522 140.134 17.2162C139.827 17.0803 139.494 17.0101 139.158 17.0101C138.822 17.0101 138.489 17.0803 138.182 17.2162C137.874 17.3522 137.599 17.5509 137.373 17.7995C137.123 18.0808 136.931 18.4086 136.809 18.7641C136.686 19.1195 136.635 19.4957 136.658 19.871C136.635 20.2462 136.686 20.6224 136.809 20.9779C136.931 21.3333 137.123 21.6611 137.373 21.9424C137.598 22.1941 137.874 22.3946 138.184 22.5302C138.493 22.6657 138.828 22.7332 139.165 22.7281Z" fill="#5F6368"/>
<path d="M143.286 0.5H18C8.33502 0.5 0.5 8.33502 0.5 18C0.5 27.665 8.33502 35.5 18 35.5H143.286C152.951 35.5 160.786 27.665 160.786 18C160.786 8.33502 152.951 0.5 143.286 0.5Z" stroke="#E8E8E8"/>
</svg>
