<svg width="32" height="32" viewBox="0 0 32 32" fill="none" xmlns="http://www.w3.org/2000/svg">
<g clip-path="url(#clip0_44_359)">
<rect width="32" height="32" rx="8" fill="#3267ED"/>
<path d="M6.5 16C6.5 11.5217 6.5 9.28249 7.89124 7.89124C9.28249 6.5 11.5217 6.5 16 6.5C20.4783 6.5 22.7175 6.5 24.1088 7.89124C25.5 9.28249 25.5 11.5217 25.5 16C25.5 20.4783 25.5 22.7175 24.1088 24.1088C22.7175 25.5 20.4783 25.5 16 25.5C11.5217 25.5 9.28249 25.5 7.89124 24.1088C6.5 22.7175 6.5 20.4783 6.5 16Z" stroke="white" stroke-width="1.5" stroke-linejoin="round"/>
<path d="M20.5 16C20.5 18.4853 18.4853 20.5 16 20.5C13.5147 20.5 11.5 18.4853 11.5 16C11.5 13.5147 13.5147 11.5 16 11.5C18.4853 11.5 20.5 13.5147 20.5 16Z" stroke="white" stroke-width="1.5"/>
<path d="M21.5078 10.5L21.4988 10.5" stroke="white" stroke-width="2" stroke-linecap="round" stroke-linejoin="round"/>
</g>
<defs>
<clipPath id="clip0_44_359">
<rect width="32" height="32" rx="8" fill="white"/>
</clipPath>
</defs>
</svg>
