<svg width="54" height="36" viewBox="0 0 54 36" fill="none" xmlns="http://www.w3.org/2000/svg">
<path d="M36 0.5H18C8.33502 0.5 0.5 8.33502 0.5 18C0.5 27.665 8.33502 35.5 18 35.5H36C45.665 35.5 53.5 27.665 53.5 18C53.5 8.33502 45.665 0.5 36 0.5Z" fill="white"/>
<path d="M27.002 28.9999V24.734C31.517 24.734 35.022 20.2561 33.289 15.5037C32.652 13.7575 31.243 12.348 29.484 11.7118C24.732 9.99049 20.254 13.483 20.254 17.9984H16C16 10.8013 22.961 5.18823 30.507 7.5457C33.8 8.581 36.432 11.2004 37.455 14.4934C39.812 22.0398 34.199 28.9999 27.002 28.9999Z" fill="#0080FF"/>
<path fill-rule="evenodd" clip-rule="evenodd" d="M27.0196 24.7583H22.7656V20.5049H27.0196V24.7583Z" fill="#0080FF"/>
<path fill-rule="evenodd" clip-rule="evenodd" d="M22.7638 28.0143H19.5078V24.7588H22.7638V28.0143Z" fill="#0080FF"/>
<path fill-rule="evenodd" clip-rule="evenodd" d="M19.5054 24.759H16.7734V22.0273H19.5054V24.759Z" fill="#0080FF"/>
<path d="M36 0.5H18C8.33502 0.5 0.5 8.33502 0.5 18C0.5 27.665 8.33502 35.5 18 35.5H36C45.665 35.5 53.5 27.665 53.5 18C53.5 8.33502 45.665 0.5 36 0.5Z" stroke="#E8E8E8"/>
</svg>
