<svg width="26" height="26" viewBox="0 0 26 26" fill="none" xmlns="http://www.w3.org/2000/svg">
<path fill-rule="evenodd" clip-rule="evenodd" d="M0 24.632C0 25.387 0.612 26 1.368 26H6.842C7.598 26 8.21 25.387 8.21 24.632V21.793C8.21 21.038 8.823 20.425 9.579 20.425H10.365C11.12 20.425 11.733 19.812 11.733 19.056V15.636C11.733 14.88 11.12 14.267 10.365 14.267H6.944C6.188 14.267 5.575 14.88 5.575 15.635V16.421C5.575 17.177 4.962 17.79 4.207 17.79H1.368C0.613 17.79 0 18.402 0 19.158V24.632ZM8.21 4.89C8.21 5.646 8.823 6.258 9.579 6.258H10.365C11.12 6.258 11.733 6.871 11.733 7.627V10.364C11.733 11.119 11.12 11.732 10.365 11.732H7.628C7.44827 11.7321 7.27027 11.6968 7.10418 11.6282C6.93809 11.5595 6.78717 11.4587 6.66003 11.3317C6.53289 11.2046 6.43204 11.0538 6.36323 10.8877C6.29442 10.7217 6.259 10.5437 6.259 10.364V9.578C6.259 8.822 5.647 8.21 4.891 8.21H1.368C1.00518 8.21 0.657228 8.06587 0.400678 7.80932C0.144128 7.55277 0 7.20482 0 6.842V1.37C0 0.613 0.612 0 1.368 0H6.842C7.598 0 8.21 0.613 8.21 1.369V4.89ZM19.74 9.578C19.74 8.822 20.353 8.21 21.109 8.21H24.632C25.387 8.21 26 7.597 26 6.841V1.37C26 1.007 25.8559 0.658838 25.5994 0.40197C25.343 0.145103 24.995 0.000529927 24.632 0L19.158 0C18.795 0.000264867 18.4469 0.144583 18.1903 0.401263C17.9336 0.657943 17.7893 1.006 17.789 1.369V4.89C17.789 5.646 17.177 6.258 16.421 6.258H15.635C14.88 6.258 14.267 6.871 14.267 7.627V10.364C14.267 11.119 14.88 11.732 15.635 11.732H18.372C19.128 11.732 19.741 11.119 19.741 10.364L19.74 9.578ZM26 24.631C26 25.386 25.387 25.999 24.631 25.999H19.158C18.9783 25.9991 18.8003 25.9638 18.6342 25.8952C18.4681 25.8265 18.3172 25.7257 18.19 25.5987C18.0629 25.4716 17.962 25.3208 17.8932 25.1547C17.8244 24.9887 17.789 24.8107 17.789 24.631V21.108C17.789 20.353 17.176 19.74 16.421 19.74H15.635C15.4553 19.74 15.2773 19.7046 15.1113 19.6358C14.9452 19.567 14.7944 19.4661 14.6673 19.339C14.5403 19.2118 14.4395 19.0609 14.3708 18.8948C14.3022 18.7287 14.2669 18.5507 14.267 18.371V15.635C14.267 14.879 14.88 14.266 15.635 14.266H18.372C18.735 14.2663 19.0831 14.4106 19.3397 14.6673C19.5964 14.9239 19.7407 15.272 19.741 15.635V16.42C19.741 17.176 20.353 17.789 21.109 17.789H24.631C25.387 17.789 26 18.401 26 19.157V24.631Z" fill="#101010"/>
</svg>
